HIERARCHY
ROOT Hips
{
	OFFSET 0.000000 0.000000 0.000000
	CHANNELS 6 Xposition Yposition Zposition Zrotation Yrotation Xrotation 
	JOINT LeftUpLeg_virtual
	{
		OFFSET 0.000000 0.000000 0.000000
		CHANNELS 3 Zrotation Yrotation Xrotation
		JOINT LeftUpLeg
		{
			OFFSET 10.205400 -3.823500 0.155100
			CHANNELS 3 Zrotation Yrotation Xrotation
			JOINT LeftLeg
			{
				OFFSET 0.708757 -12.982077 0.567790
				CHANNELS 3 Zrotation Yrotation Xrotation
				JOINT LeftFoot
				{
					OFFSET -0.708756 -10.717838 -2.184338
					CHANNELS 3 Zrotation Yrotation Xrotation
					JOINT LeftToeBase
					{
						OFFSET 0.108149 -7.191104 7.560241
						CHANNELS 3 Zrotation Yrotation Xrotation
						End Site
						{
							OFFSET 0.000000 0.000000 0.000000
						}
					}
				}
			}
		}
	}
	JOINT RightUpLeg_virtual
	{
		OFFSET 0.000000 0.000000 0.000000
		CHANNELS 3 Zrotation Yrotation Xrotation
		JOINT RightUpLeg
		{
			OFFSET -10.205400 -3.823500 0.005500
			CHANNELS 3 Zrotation Yrotation Xrotation
			JOINT RightLeg
			{
				OFFSET -0.708756 -12.982134 0.610632
				CHANNELS 3 Zrotation Yrotation Xrotation
				JOINT RightFoot
				{
					OFFSET 0.708754 -10.717769 -1.945823
					CHANNELS 3 Zrotation Yrotation Xrotation
					JOINT RightToeBase
					{
						OFFSET -0.108140 -7.191069 7.372968
						CHANNELS 3 Zrotation Yrotation Xrotation
						End Site
						{
							OFFSET 0.000000 0.000000 0.000000
						}
					}
				}
			}
		}
	}
	JOINT Spine_virtual
	{
		OFFSET 0.000000 0.000000 0.000000
		CHANNELS 3 Zrotation Yrotation Xrotation
		JOINT Spine
		{
			OFFSET 0.000000 6.876099 0.125700
			CHANNELS 3 Zrotation Yrotation Xrotation
			JOINT Spine1
			{
				OFFSET 0.000000 8.022060 0.146608
				CHANNELS 3 Zrotation Yrotation Xrotation
				JOINT Spine2
				{
					OFFSET 0.000000 9.168068 0.167552
					CHANNELS 3 Zrotation Yrotation Xrotation
					JOINT Neck_virtual
					{
						OFFSET 0.000000 0.000000 0.000000
						CHANNELS 3 Zrotation Yrotation Xrotation
						JOINT Neck
						{
							OFFSET 0.000000 10.314075 0.188496
							CHANNELS 3 Zrotation Yrotation Xrotation
							JOINT Head
							{
								OFFSET 0.000000 7.643700 -2.377400
								CHANNELS 3 Zrotation Yrotation Xrotation
								End Site
								{
									OFFSET 0.000000 0.000000 0.000000
								}
							}
						}
					}
					JOINT LeftShoulder_virtual
					{
						OFFSET 0.000000 0.000000 0.000000
						CHANNELS 3 Zrotation Yrotation Xrotation
						JOINT LeftShoulder
						{
							OFFSET 4.392200 8.824978 0.174984
							CHANNELS 3 Zrotation Yrotation Xrotation
							JOINT LeftArm
							{
								OFFSET 8.771219 -2.981674 -0.026999
								CHANNELS 3 Zrotation Yrotation Xrotation
								JOINT LeftForeArm
								{
									OFFSET 8.512804 0.000000 -0.000000
									CHANNELS 3 Zrotation Yrotation Xrotation
									JOINT LeftHand
									{
										OFFSET 18.484802 0.000000 -0.000000
										CHANNELS 3 Zrotation Yrotation Xrotation
										End Site
										{
											OFFSET 0.000000 0.000000 0.000000
										}
									}
								}
							}
						}
					}
					JOINT RightShoulder_virtual
					{
						OFFSET 0.000000 0.000000 0.000000
						CHANNELS 3 Zrotation Yrotation Xrotation
						JOINT RightShoulder
						{
							OFFSET -4.392200 8.824993 0.141379
							CHANNELS 3 Zrotation Yrotation Xrotation
							JOINT RightArm
							{
								OFFSET -8.771282 -2.981682 -0.094208
								CHANNELS 3 Zrotation Yrotation Xrotation
								JOINT RightForeArm
								{
									OFFSET -8.494598 0.000000 0.000000
									CHANNELS 3 Zrotation Yrotation Xrotation
									JOINT RightHand
									{
										OFFSET -18.483803 0.000000 0.000001
										CHANNELS 3 Zrotation Yrotation Xrotation
										End Site
										{
											OFFSET 0.000000 0.000000 0.000000
										}
									}
								}
							}
						}
					}
				}
			}
		}
	}
}
MOTION
Frames: 4
Frame Time: 0.033333
20.772688 36.555817 -11.945709 179.885108 -0.519452 -179.874753 -2.616757 -0.856016 9.806387 -3.621645 -7.938991 -18.837098 10.501173 10.135082 13.128491 -6.647151 1.735908 12.997733 0.000000 0.000000 0.000000 2.073027 1.521021 9.337173 1.797483 -3.629954 -3.000800 -8.825280 -3.449809 6.952167 8.488495 10.262347 9.587414 0.000000 0.000000 0.000000 1.740266 2.335474 -0.459721 -4.447772 0.609782 -7.391744 -0.249498 -4.845374 2.885586 -0.002550 -0.023016 -0.010251 -0.525279 -3.209734 5.552311 0.394404 2.135495 -0.721086 0.000000 0.000000 0.000000 0.899912 -2.224618 2.641200 1.963772 3.419586 -6.715016 -0.253184 11.971418 -24.210596 -7.472527 -30.695526 -3.322934 0.000000 0.000000 0.000000 -2.680651 -1.462503 2.205852 4.506206 -4.762332 -15.858909 33.561944 -35.240955 -33.474337 -0.907351 33.105135 -8.171947 0.000000 0.000000 0.000000 
20.766638 36.561398 -11.996737 179.894219 -0.534638 -179.771685 -2.565904 -1.003833 9.816182 -3.690370 -8.034083 -18.831603 10.665929 10.230116 13.305074 -6.534926 1.864388 12.958821 0.000000 0.000000 0.000000 2.073191 1.579198 9.518031 1.837702 -3.975037 -2.876414 -8.730171 -3.401453 7.196450 8.453314 10.249535 9.892907 0.000000 0.000000 0.000000 1.715538 2.289097 -0.432097 -4.474302 0.596447 -7.453836 -0.272247 -4.873436 2.825784 0.079323 -0.043825 0.006857 -0.556082 -3.137294 5.554853 0.376429 2.153774 -0.769255 0.000000 0.000000 0.000000 0.861618 -2.189785 2.708791 1.926265 3.452059 -6.728906 -0.252990 11.966050 -24.147468 -7.463086 -30.673396 -3.317936 0.000000 0.000000 0.000000 -2.720120 -1.429350 2.213829 4.464703 -4.760250 -15.865705 33.595098 -35.305159 -33.404369 -0.959944 33.142236 -8.243133 0.000000 0.000000 0.000000 
20.756447 36.564278 -12.060496 179.901500 -0.508863 -179.786657 -2.561681 -1.023085 9.913903 -3.699430 -8.057625 -18.829097 10.717672 10.239879 13.446906 -6.515496 1.885458 12.794634 0.000000 0.000000 0.000000 2.134228 1.544032 9.613823 1.766276 -3.963735 -2.908482 -8.704310 -3.307195 7.261913 8.473857 10.212093 9.857064 0.000000 0.000000 0.000000 1.734634 2.247213 -0.331878 -4.462329 0.643427 -7.490426 -0.236942 -4.853160 2.830147 -0.012371 -0.037038 0.038070 -0.487026 -3.152041 5.482434 0.418833 2.197935 -0.706759 0.000000 0.000000 0.000000 0.934299 -2.159666 2.596839 1.968882 3.420160 -6.864684 -0.188336 11.979174 -24.037666 -7.542088 -30.703927 -3.230971 0.000000 0.000000 0.000000 -2.667378 -1.436646 2.161575 4.515267 -4.690900 -15.822215 33.677621 -35.353530 -33.574201 -0.877443 33.100196 -8.132456 0.000000 0.000000 0.000000 
20.743923 36.561859 -12.109509 179.985320 -0.570123 -179.757492 -2.469130 -1.104314 9.975346 -3.735687 -8.099713 -18.880899 10.762063 10.220134 13.582407 -6.511336 1.899459 12.672097 0.000000 0.000000 0.000000 2.220153 1.500408 9.706768 1.705516 -3.999394 -2.977659 -8.698367 -3.080660 7.369384 8.410853 10.104978 9.809723 0.000000 0.000000 0.000000 1.779060 2.254280 -0.209340 -4.413779 0.685528 -7.598298 -0.211520 -4.853208 2.777498 0.008737 -0.048549 0.007353 -0.539735 -3.091541 5.545255 0.454181 2.226417 -0.571987 0.000000 0.000000 0.000000 0.868643 -2.181258 2.685459 1.975643 3.331560 -6.766510 -0.057563 12.042842 -24.000704 -7.568767 -30.747490 -3.148547 0.000000 0.000000 0.000000 -2.734055 -1.412740 2.211856 4.495613 -4.625259 -15.696442 34.048882 -35.402458 -33.879886 -0.912200 33.065431 -8.206613 0.000000 0.000000 0.000000 
